<?xml version="1.0" encoding="UTF-8"?>
<svg version="1.1" xmlns="http://www.w3.org/2000/svg" width="256" height="104">
<path d="M0 0 C84.48 0 168.96 0 256 0 C256 34.32 256 68.64 256 104 C171.52 104 87.04 104 0 104 C0 69.68 0 35.36 0 0 Z " fill="#035FB8" transform="translate(0,0)"/>
<path d="M0 0 C9.57 0 19.14 0 29 0 C32.26330936 10.10071945 35.38175301 20.18363275 38.125 30.4375 C40.51926908 43.05722642 40.51926908 43.05722642 46 54 C49.63 36.18 53.26 18.36 57 0 C64.26 0 71.52 0 79 0 C76.49495702 13.77773637 73.61083879 27.43162671 70.53561401 41.09014893 C68.0162739 52.28666399 65.62499568 63.49319325 63.45922852 74.76464844 C63.27803467 75.70083008 63.09684082 76.63701172 62.91015625 77.6015625 C62.75683838 78.40932129 62.60352051 79.21708008 62.44555664 80.04931641 C62 82 62 82 61 84 C51.76 84 42.52 84 33 84 C32.11248047 81.12087891 32.11248047 81.12087891 31.20703125 78.18359375 C30.40932123 75.60141687 29.61125753 73.01935273 28.8125 70.4375 C28.60647156 69.77139709 28.40044312 69.10529419 28.18817139 68.41900635 C25.58807394 60.02074498 22.953106 51.64265358 20.0703125 43.3359375 C18.55120742 38.60120852 17.28027705 33.80399507 16 29 C14.91157164 33.89471556 13.82861231 38.79061363 12.75 43.6875 C12.59037781 44.41197327 12.43075562 45.13644653 12.26629639 45.88287354 C10.06703948 55.88653626 7.97363131 65.89794691 6.15527344 75.97924805 C5.09435174 81.81129651 5.09435174 81.81129651 4 84 C-2.93 84 -9.86 84 -17 84 C-15.87508796 72.75087963 -15.87508796 72.75087963 -14.95605469 68.65576172 C-14.75204041 67.73294403 -14.54802612 66.81012634 -14.33782959 65.85934448 C-14.00818207 64.40916428 -14.00818207 64.40916428 -13.671875 62.9296875 C-13.44099182 61.8909549 -13.21010864 60.85222229 -12.972229 59.78201294 C-12.23694537 56.47842814 -11.49387883 53.17665892 -10.75 49.875 C-9.78394126 45.56045598 -8.82116611 41.24518466 -7.859375 36.9296875 C-7.62287231 35.87078308 -7.38636963 34.81187866 -7.1427002 33.72088623 C-4.64746064 22.50381096 -2.32033899 11.25449093 0 0 Z " fill="#FAFCFD" transform="translate(92,10)"/>
<path d="M0 0 C7.59 0 15.18 0 23 0 C21.61117751 10.87910949 19.46572899 21.31517439 17 32 C25.58 32 34.16 32 43 32 C43.2475 30.06125 43.495 28.1225 43.75 26.125 C44.9992442 17.28976569 46.99360382 8.69438343 49 0 C56.59 0 64.18 0 72 0 C70.18826502 11.33740992 68.12966283 22.54133084 65.63943481 33.74713135 C64.75125189 37.74466581 63.87750502 41.74535087 63.00390625 45.74609375 C62.74500862 46.93017822 62.74500862 46.93017822 62.48088074 48.13818359 C60.70066112 56.31346432 59.05619637 64.51369943 57.45947266 72.72680664 C57.27819824 73.65485107 57.09692383 74.58289551 56.91015625 75.5390625 C56.75683838 76.33521973 56.60352051 77.13137695 56.44555664 77.95166016 C56 80 56 80 55 83 C47.41 83 39.82 83 32 83 C34.09024272 71.25139435 36.17243147 59.59303096 39 48 C30.42 48 21.84 48 13 48 C12.67 50.64 12.34 53.28 12 56 C11.64024106 57.98009425 11.2564174 59.95603372 10.84375 61.92578125 C10.62589844 62.96927734 10.40804687 64.01277344 10.18359375 65.08789062 C9.95800781 66.15201172 9.73242188 67.21613281 9.5 68.3125 C9.27441406 69.39595703 9.04882812 70.47941406 8.81640625 71.59570312 C7.13772321 79.58683036 7.13772321 79.58683036 6 83 C-1.26 83 -8.52 83 -16 83 C-15.45402691 74.90024736 -14.14254168 67.21205943 -12.38894653 59.29000854 C-11.59740934 55.71318933 -10.82787541 52.13160305 -10.0546875 48.55078125 C-9.89067947 47.79414688 -9.72667145 47.03751251 -9.55769348 46.25794983 C-7.4841535 36.66671385 -5.52596886 27.05174976 -3.5625 17.4375 C-3.20503551 15.68977072 -2.84753318 13.94204917 -2.48999023 12.19433594 C-1.65862013 8.12983568 -0.82935446 4.06491392 0 0 Z " fill="#FCFDFE" transform="translate(178,10)"/>
<path d="M0 0 C1.89975586 0.00193359 1.89975586 0.00193359 3.83789062 0.00390625 C20.0943684 0.1568684 20.0943684 0.1568684 24.3125 4.375 C22.6625 9.655 21.0125 14.935 19.3125 20.375 C17.641875 19.88 15.97125 19.385 14.25 18.875 C6.10748724 16.84661604 -3.10979534 15.56926183 -11.07421875 18.7109375 C-13.97535138 20.16351919 -13.97535138 20.16351919 -14.625 23.375 C-14.85662594 26.42748736 -14.85662594 26.42748736 -13.6875 29.375 C-11.51558507 30.44829289 -11.51558507 30.44829289 -8.6875 31.375 C-6.00700055 32.46753263 -3.34851547 33.61096755 -0.6875 34.75 C0.01117188 35.04132812 0.70984375 35.33265625 1.4296875 35.6328125 C8.81657522 38.81056797 12.95645738 42.36856597 16.359375 49.734375 C19.25201307 57.74840505 16.75627408 64.88957439 13.3125 72.375 C8.97125509 79.50704521 1.65052878 82.57942438 -6.09765625 84.796875 C-19.41332966 87.76930285 -37.14985524 88.64382238 -49.6875 82.375 C-49.04479017 76.4620696 -47.49746216 71.03255469 -45.6875 65.375 C-42.83889413 65.89292834 -40.17101213 66.53916936 -37.40625 67.41796875 C-33.21250473 68.49724143 -29.49144337 68.70674841 -25.1875 68.6875 C-24.46691406 68.70361328 -23.74632813 68.71972656 -23.00390625 68.73632812 C-17.84395157 68.74099355 -14.27646706 67.75639579 -9.6875 65.375 C-7.37044968 63.44378101 -7.37044968 63.44378101 -7.125 60.0625 C-7.30865237 56.12211929 -7.30865237 56.12211929 -10.72265625 53.8515625 C-14.50968655 51.3203151 -18.45593513 49.69401959 -22.6875 48.0625 C-29.16395835 45.40983297 -34.00273494 42.58376165 -37.6875 36.375 C-39.99300973 29.45847081 -39.69554901 21.57943373 -36.6875 14.9375 C-32.32503709 7.41895358 -25.90373552 4.02553189 -17.90234375 1.19970703 C-11.97991741 -0.31957883 -6.07666885 -0.1185996 0 0 Z " fill="#FBFCFD" transform="translate(55.6875,8.625)"/>
</svg>
